<svg xmlns="http://www.w3.org/2000/svg" viewBox="0 0 512 512">
    <path fill="#00a896" d="M192 128a64 64 0 1 0 -128 0 64 64 0 1 0 128 0zm-96 0a32 32 0 1 1 64 0 32 32 0 1 1 -64 0zm384 96c0-17.7-14.3-32-32-32H352c-17.7 0-32 14.3-32 32v64H224V204.3c22-9 39.5-27.1 47-50.7c3.9-12.2 .7-25.5-8.2-34.4L208 64c-12.5-12.5-32.8-12.5-45.3 0L107.9 119.2c-8.9 8.9-12.1 22.2-8.2 34.4c7.5 23.6 25 41.7 47 50.7V320H64c-17.7 0-32 14.3-32 32v32c0 17.7 14.3 32 32 32h32v48c0 17.7 14.3 32 32 32h224c17.7 0 32-14.3 32-32V416h32c17.7 0 32-14.3 32-32V224zM160 464V416h96v48H160zM352 288c0 8.8-7.2 16-16 16H208c-8.8 0-16-7.2-16-16V224h160v64z"/>
</svg>
